<svg xmlns="http://www.w3.org/2000/svg" width="381" height="419" fill="none"><g clip-path="url(#a)"><path stroke="#000" stroke-width="1.058" d="M358.172 210.104c0 2.411-1.161 4.818-3.484 7.203-2.325 2.387-5.781 4.715-10.279 6.948-8.994 4.467-22.042 8.504-38.209 11.9-32.325 6.79-77.007 10.995-126.378 10.995-49.37 0-94.052-4.205-126.377-10.995-16.167-3.396-29.215-7.433-38.209-11.9-4.498-2.233-7.954-4.561-10.28-6.948-2.323-2.385-3.483-4.792-3.483-7.203 0-2.412 1.16-4.819 3.484-7.204 2.325-2.387 5.781-4.715 10.28-6.948 8.993-4.467 22.04-8.504 38.208-11.9 32.325-6.79 77.007-10.994 126.377-10.994 49.371 0 94.053 4.204 126.378 10.994 16.167 3.396 29.215 7.433 38.209 11.9 4.498 2.233 7.954 4.561 10.279 6.948 2.323 2.385 3.484 4.792 3.484 7.204z"/><path stroke="#000" stroke-width="1.058" d="M358.172 236.565c0 2.411-1.161 4.818-3.484 7.204-2.325 2.387-5.781 4.714-10.279 6.948-8.994 4.466-22.042 8.503-38.209 11.9-32.325 6.79-77.007 10.994-126.378 10.994-49.37 0-94.052-4.204-126.377-10.994-16.167-3.397-29.215-7.434-38.209-11.9-4.498-2.234-7.954-4.561-10.28-6.948-2.323-2.386-3.483-4.793-3.483-7.204 0-2.411 1.16-4.818 3.484-7.204 2.325-2.387 5.781-4.714 10.28-6.948 8.993-4.466 22.04-8.503 38.208-11.9 32.325-6.79 77.007-10.994 126.377-10.994 49.371 0 94.053 4.204 126.378 10.994 16.167 3.397 29.215 7.434 38.209 11.9 4.498 2.234 7.954 4.561 10.279 6.948 2.323 2.386 3.484 4.793 3.484 7.204z"/><path stroke="#000" stroke-width="1.058" d="M358.172 263.026c0 2.412-1.161 4.819-3.484 7.204-2.325 2.387-5.781 4.715-10.279 6.948-8.994 4.467-22.042 8.504-38.209 11.9-32.325 6.79-77.007 10.994-126.378 10.994-49.37 0-94.052-4.204-126.377-10.994-16.167-3.396-29.215-7.433-38.209-11.9-4.498-2.233-7.954-4.561-10.28-6.948-2.323-2.385-3.483-4.792-3.483-7.204 0-2.411 1.16-4.818 3.484-7.203 2.325-2.387 5.781-4.715 10.28-6.948 8.993-4.467 22.04-8.504 38.208-11.9 32.325-6.79 77.007-10.995 126.377-10.995 49.371 0 94.053 4.205 126.378 10.995 16.167 3.396 29.215 7.433 38.209 11.9 4.498 2.233 7.954 4.561 10.279 6.948 2.323 2.385 3.484 4.792 3.484 7.203zM268.037 70.524l.178.958.707-.67 49.887-47.339-29.605 62.074-.419.88.966-.127 68.184-8.974-60.437 32.818-.856.464.856.465 60.437 32.819-68.184-8.975-.966-.127.419.879 29.605 62.075-49.887-47.339-.707-.671-.178.959-12.535 67.621-12.535-67.621-.178-.959-.707.671-49.887 47.339 29.605-62.075.419-.879-.967.127-68.183 8.975 60.437-32.819.856-.465-.856-.464-60.437-32.818 68.183 8.974.967.127-.419-.88-29.605-62.074 49.887 47.338.707.671.178-.958 12.535-67.62 12.535 67.62z"/><path fill="#D9D9D9" d="m294.135 187.347 18.829 47.694 49.029-15.016-25.549 44.459 42.309 28.97-50.689 7.743 3.729 51.141-37.658-34.801-37.657 34.801 3.729-51.141-50.689-7.743 42.309-28.97-25.549-44.459 49.029 15.016 18.828-47.694z"/><path fill="#B9FF66" d="m119.696 323.995 24.281-44.563 24.475 44.563 44.467 24.379-44.467 24.378-24.475 44.564-24.281-44.564-44.66-24.378 44.66-24.379z"/><path fill="#0D0C22" stroke="#000" stroke-width="1.058" d="M162.358 263.026c36.243 0 65.624-29.381 65.624-65.624 0-36.243-29.381-65.624-65.624-65.624-36.243 0-65.624 29.381-65.624 65.624 0 36.243 29.381 65.624 65.624 65.624z"/><path fill="#fff" d="M140.66 204.282c5.845 0 10.584-9.478 10.584-21.169s-4.739-21.169-10.584-21.169c-5.846 0-10.585 9.478-10.585 21.169s4.739 21.169 10.585 21.169zm43.396 0c5.846 0 10.585-9.478 10.585-21.169s-4.739-21.169-10.585-21.169c-5.845 0-10.584 9.478-10.584 21.169s4.739 21.169 10.584 21.169z"/></g><defs><clipPath id="a"><path fill="#fff" d="M.943 0h379.986v418.09H.943z"/></clipPath></defs></svg>